<?xml version="1.0" standalone="no"?>
<!DOCTYPE svg PUBLIC "-//W3C//DTD SVG 20010904//EN"
 "http://www.w3.org/TR/2001/REC-SVG-20010904/DTD/svg10.dtd">
<svg version="1.0" xmlns="http://www.w3.org/2000/svg"
 width="1024.000000pt" height="1024.000000pt" viewBox="0 0 1024.000000 1024.000000"
 preserveAspectRatio="xMidYMid meet">
<metadata>
Created by potrace 1.11, written by Peter Selinger 2001-2013
</metadata>
<g transform="translate(0.000000,1024.000000) scale(0.100000,-0.100000)"
fill="#000000" stroke="none">
<path d="M0 5120 l0 -5120 5120 0 5120 0 0 5120 0 5120 -5120 0 -5120 0 0
-5120z m5544 4056 c8 3 32 -9 53 -28 21 -18 47 -38 57 -44 31 -16 34 -39 5
-29 -13 4 -59 6 -102 6 -43 -1 -83 1 -89 5 -7 4 -23 9 -37 10 -42 5 -243 15
-291 14 -43 0 -80 13 -69 25 3 3 37 9 76 14 38 5 79 15 90 22 18 11 29 9 76
-8 46 -18 61 -20 103 -11 27 6 53 16 57 24 5 10 14 11 32 4 14 -5 31 -7 39 -4z
m-685 -25 c19 -19 30 -20 108 -16 68 4 84 2 75 -7 -8 -8 -45 -13 -96 -14 -89
-1 -106 -6 -106 -30 0 -11 -9 -15 -33 -13 -18 2 -37 0 -44 -4 -12 -8 -64 -3
-81 7 -6 3 -14 2 -17 -4 -5 -8 -11 -7 -22 1 -12 10 -21 10 -46 -3 -52 -26 -67
-29 -73 -13 -4 11 -19 15 -50 13 -39 -1 -44 -4 -44 -25 0 -12 5 -23 11 -23 6
0 9 -7 5 -15 -5 -15 5 -21 17 -9 7 7 46 12 142 18 33 2 73 7 88 11 22 6 31 3
42 -11 14 -18 14 -18 15 3 0 26 44 43 63 24 6 -6 18 -11 27 -11 8 0 21 -9 28
-20 7 -12 8 -20 2 -20 -20 0 -9 -19 12 -22 30 -4 34 -32 9 -57 -22 -22 -29
-73 -9 -68 6 1 12 -13 14 -35 3 -44 -10 -52 -73 -42 -27 4 -43 2 -43 -4 0 -6
6 -13 13 -16 8 -3 6 -9 -7 -20 -11 -9 -22 -16 -26 -16 -12 0 -34 47 -39 84 -3
22 -12 41 -19 44 -7 2 -10 -2 -6 -12 4 -11 1 -16 -10 -16 -9 0 -19 7 -22 15
-4 8 -17 15 -31 15 -22 0 -24 2 -12 16 12 15 10 16 -21 9 -19 -4 -36 -11 -38
-16 -2 -5 -9 -9 -15 -9 -17 0 -53 -41 -62 -68 -7 -23 -6 -24 49 -17 37 5 56 4
56 -3 0 -6 -9 -14 -21 -17 -19 -6 -19 -8 -5 -24 9 -10 16 -23 16 -29 0 -7 9
-12 20 -12 25 0 25 -5 2 -28 -22 -22 -42 -18 -35 8 4 14 -2 23 -21 31 -14 7
-26 17 -26 22 0 19 -34 36 -49 24 -10 -9 -16 -7 -27 8 -18 24 -18 35 0 35 24
0 38 26 22 39 -8 7 -16 8 -18 2 -1 -5 -21 -11 -42 -13 -48 -3 -60 17 -20 33
23 8 25 12 14 19 -9 6 -19 5 -24 0 -6 -6 -22 -10 -37 -10 -23 0 -26 -3 -21
-25 4 -21 1 -24 -13 -18 -16 6 -17 2 -11 -28 9 -47 21 -55 47 -30 34 32 78 27
92 -11 7 -19 -16 -32 -50 -29 -13 1 -23 -2 -23 -8 0 -6 -9 -11 -19 -11 -11 0
-26 -7 -35 -15 -24 -25 -56 -19 -56 10 0 17 -8 29 -22 35 -13 6 -31 15 -40 22
-22 16 -32 5 -24 -27 6 -23 36 -37 36 -16 0 5 9 7 20 4 27 -7 21 -24 -14 -41
-15 -8 -32 -25 -38 -38 -7 -16 -20 -24 -37 -25 -14 -1 -34 -2 -43 -3 -10 0
-26 -17 -35 -35 -12 -23 -28 -38 -47 -43 -36 -9 -52 3 -62 45 -3 17 -20 44
-36 60 -19 20 -27 35 -22 46 18 44 17 51 -10 51 -19 0 -24 4 -19 16 4 10 13
14 28 10 29 -7 37 2 22 25 -7 11 -23 19 -37 18 -23 0 -23 -1 -5 -9 19 -8 19
-9 -2 -9 -13 -1 -23 4 -23 9 0 6 -12 8 -27 5 -25 -5 -26 -5 -9 7 10 7 31 25
46 41 15 15 32 27 37 27 5 0 18 9 28 20 10 11 24 20 30 20 7 0 15 7 19 15 3 8
9 15 13 15 14 -1 44 -28 47 -42 2 -7 9 -25 16 -41 13 -28 36 -29 67 -5 7 6 15
3 21 -8 7 -12 15 -15 28 -9 11 4 34 11 52 15 26 6 32 5 28 -5 -3 -8 2 -19 10
-26 8 -7 12 -20 9 -30 -4 -13 -1 -19 9 -19 11 0 14 8 11 32 -3 24 2 37 21 55
23 21 25 29 20 75 -4 28 -7 52 -9 53 -1 0 -22 14 -46 30 -41 28 -44 28 -57 11
-10 -15 -21 -17 -49 -13 -34 6 -49 2 -120 -29 -71 -30 -270 -78 -255 -61 15
16 83 57 95 57 8 0 18 6 22 14 4 7 28 16 53 19 30 4 51 13 64 29 10 13 21 18
23 12 4 -12 112 -6 129 7 6 5 18 7 26 4 9 -4 18 1 22 10 3 10 12 15 21 11 8
-3 17 -1 20 4 4 6 17 10 30 10 13 0 27 5 31 11 4 7 33 9 78 6 75 -4 186 10
186 23 0 5 8 9 18 8 26 0 156 34 167 44 15 15 71 2 94 -21z m428 -96 c-7 -7
-15 -9 -18 -4 -3 6 -14 7 -25 3 -19 -7 -19 -6 0 8 24 19 61 13 43 -7z m-112
-23 c-8 -8 -25 10 -19 20 4 6 9 5 15 -3 4 -7 6 -15 4 -17z m419 12 c3 -9 -1
-14 -13 -14 -36 0 -50 -12 -57 -47 -5 -25 -3 -38 7 -44 10 -6 7 -8 -11 -6 -17
2 -30 14 -39 35 -14 30 -17 31 -53 26 -31 -5 -38 -4 -38 10 0 16 15 22 23 9 2
-5 2 -2 1 5 -2 7 4 15 14 18 9 3 24 9 32 14 27 14 128 11 134 -6z m-248 -18
c19 -19 18 -25 -3 -22 -10 2 -19 10 -21 19 -4 21 5 22 24 3z m761 -6 c14 -18
8 -30 -17 -30 -13 0 -17 -5 -14 -15 4 -10 1 -14 -7 -11 -8 2 -27 7 -42 10 -19
5 -27 12 -25 24 2 11 -8 20 -32 29 -32 11 -29 12 45 10 57 -1 83 -6 92 -17z
m-807 -2 c0 -4 -9 -8 -20 -8 -11 0 -20 4 -20 9 0 6 9 9 20 8 11 -1 20 -5 20
-9z m-15 -48 c-19 -21 -37 -18 -28 5 3 8 14 15 26 15 19 0 19 -1 2 -20z m1069
-12 c25 -18 45 -36 46 -40 0 -4 -15 -7 -32 -6 -38 0 -158 48 -158 63 0 5 22
11 50 13 43 3 56 -1 94 -30z m-2083 -21 c-13 -13 -26 -3 -16 12 3 6 11 8 17 5
6 -4 6 -10 -1 -17z m1569 -3 c0 -9 -5 -14 -12 -12 -18 6 -21 28 -4 28 9 0 16
-7 16 -16z m160 6 c0 -5 -7 -10 -15 -10 -8 0 -15 5 -15 10 0 6 7 10 15 10 8 0
15 -4 15 -10z m-1890 -30 c0 -5 -2 -10 -4 -10 -3 0 -8 5 -11 10 -3 6 -1 10 4
10 6 0 11 -4 11 -10z m1920 0 c0 -5 -2 -10 -4 -10 -3 0 -8 5 -11 10 -3 6 -1
10 4 10 6 0 11 -4 11 -10z m-1785 -21 c5 -14 2 -25 -6 -30 -19 -12 -49 -11
-49 1 0 6 5 10 11 10 5 0 7 5 3 11 -3 6 0 15 7 20 21 13 27 11 34 -12z m-65 5
c0 -3 -6 -12 -14 -19 -12 -12 -15 -12 -19 -1 -3 8 -3 17 0 20 8 8 33 8 33 0z
m1490 -6 c0 -10 3 -9 9 1 7 11 15 11 45 1 19 -6 39 -16 42 -22 4 -7 2 -8 -4
-4 -7 4 -12 2 -12 -4 0 -20 -87 -98 -100 -90 -10 6 -6 15 16 34 16 14 31 26
34 26 7 0 11 50 5 50 -3 0 -14 -6 -25 -12 -17 -11 -22 -10 -30 2 -5 8 -6 18
-4 22 8 12 24 9 24 -4z m-1996 -29 c11 -11 -24 -38 -57 -44 -38 -7 -56 8 -44
38 4 11 91 17 101 6z m1606 -15 c0 -8 -5 -12 -10 -9 -6 4 -8 11 -5 16 9 14 15
11 15 -7z m335 -22 c-3 -3 -11 0 -18 7 -9 10 -8 11 6 5 10 -3 15 -9 12 -12z
m1015 8 c0 -5 -4 -10 -9 -10 -6 0 -13 5 -16 10 -3 6 1 10 9 10 9 0 16 -4 16
-10z m-3085 -16 c22 -9 -42 -50 -146 -94 -82 -35 -149 -72 -173 -95 -8 -9 -39
-26 -69 -39 -67 -30 -85 -50 -69 -77 17 -27 15 -32 -13 -25 -30 8 -58 -14 -49
-37 3 -10 -6 -20 -27 -31 -39 -20 -39 -20 -39 -1 0 28 -58 14 -98 -22 -7 -7
-17 -13 -22 -13 -5 0 -15 -6 -22 -13 -7 -7 -35 -26 -63 -41 -27 -16 -68 -46
-90 -67 -105 -100 -128 -120 -153 -137 -63 -40 -151 -112 -209 -170 -34 -34
-67 -62 -73 -62 -19 0 27 56 129 159 111 112 140 149 160 200 17 43 27 51 64
51 33 0 59 13 107 52 19 15 42 28 50 28 9 0 32 20 52 44 20 23 53 51 72 60 20
9 36 21 36 27 0 5 12 15 28 22 15 6 39 23 54 38 14 14 51 34 82 43 30 10 75
32 98 49 24 17 54 33 67 35 29 4 116 48 132 68 6 8 20 14 30 14 11 0 19 5 19
10 0 6 10 10 23 10 12 0 29 5 37 10 17 11 51 13 75 4z m1764 -5 c17 -6 31 -18
31 -26 0 -8 5 -11 10 -8 6 3 10 -1 10 -9 0 -10 -9 -16 -22 -16 -48 -1 -96 -79
-71 -117 8 -12 13 -30 11 -40 -2 -12 4 -19 18 -21 26 -4 46 -26 64 -70 12 -31
11 -34 -11 -50 -38 -27 -59 -33 -59 -17 0 8 -7 15 -15 15 -8 0 -18 12 -21 28
-4 15 -9 31 -13 37 -3 5 -5 19 -6 29 0 12 -11 23 -30 29 -36 12 -57 37 -44 53
5 6 11 24 12 40 2 16 10 45 19 64 8 19 18 43 21 52 4 11 13 15 26 11 14 -3 23
0 27 11 7 19 4 19 43 5z m526 -40 c11 -17 -1 -21 -15 -4 -8 9 -8 15 -2 15 6 0
14 -5 17 -11z m-235 -9 c0 -5 -2 -10 -4 -10 -3 0 -8 5 -11 10 -3 6 -1 10 4 10
6 0 11 -4 11 -10z m-1791 -17 c-8 -9 -13 -24 -11 -35 2 -10 -1 -18 -7 -18 -6
0 -8 -7 -5 -15 6 -16 5 -17 -36 -19 -19 -1 -24 3 -22 16 2 12 -2 16 -13 12
-12 -5 -15 2 -15 31 0 37 1 38 33 33 17 -3 43 -2 57 3 14 4 27 7 29 8 2 1 -3
-6 -10 -16z m3079 -15 c30 -10 74 -21 99 -23 32 -4 52 -12 67 -29 11 -13 41
-30 66 -37 25 -7 47 -15 50 -19 25 -27 84 -37 124 -21 34 13 125 -49 126 -85
0 -6 11 -23 25 -38 14 -15 25 -32 25 -39 0 -7 42 -40 93 -73 50 -34 129 -96
174 -138 44 -42 86 -76 93 -76 6 0 9 -4 6 -9 -8 -12 49 -87 76 -102 23 -12 90
-83 118 -124 8 -13 42 -52 75 -88 96 -104 143 -159 172 -202 15 -22 36 -47 47
-54 43 -30 164 -164 160 -176 -6 -14 61 -49 75 -41 10 6 21 -16 21 -40 0 -8 9
-33 19 -55 17 -34 17 -41 5 -46 -20 -8 -17 -64 6 -93 11 -14 20 -32 20 -40 0
-9 7 -26 17 -39 16 -24 26 -81 14 -81 -3 0 -17 23 -31 51 -13 28 -29 57 -35
63 -16 17 -40 57 -81 133 -21 37 -43 73 -51 78 -16 12 -19 41 -8 69 7 16 5 18
-14 13 -19 -5 -35 7 -87 61 -35 37 -64 70 -64 75 0 5 -7 7 -15 3 -9 -3 -15 0
-15 10 0 8 5 12 10 9 19 -12 10 11 -21 53 -17 23 -35 42 -40 42 -5 0 -9 5 -9
10 0 16 -42 70 -55 70 -6 0 -30 27 -53 60 -24 33 -49 60 -57 60 -8 0 -15 7
-15 15 0 8 -13 23 -29 33 -16 10 -47 40 -68 67 -52 65 -79 88 -95 82 -8 -3 -5
-6 7 -6 17 -1 17 -3 5 -11 -20 -13 -30 -12 -30 3 0 6 -16 22 -36 35 -19 12
-39 33 -44 46 -5 14 -20 26 -37 29 -42 9 -133 87 -133 115 0 24 -10 28 -28 10
-8 -8 -22 -3 -56 23 -48 36 -54 47 -34 67 9 9 9 12 -2 12 -7 0 -23 9 -34 19
-36 34 -78 52 -93 39 -10 -8 -18 -6 -34 10 -11 12 -26 22 -33 22 -7 0 -32 21
-56 46 -32 34 -48 44 -64 40 -27 -7 -55 8 -32 17 9 4 16 10 16 15 0 16 -100
88 -190 138 -47 25 -94 53 -105 61 l-20 15 20 -7 c11 -5 44 -17 73 -27z
m-2158 -14 c0 -16 -2 -16 -24 -8 -13 5 -14 9 -5 20 13 16 29 9 29 -12z m1040
16 c0 -5 -7 -7 -15 -4 -8 4 -15 8 -15 10 0 2 7 4 15 4 8 0 15 -4 15 -10z
m-116 -6 c20 -8 21 -34 2 -34 -8 0 -23 -3 -33 -6 -13 -4 -14 -3 -5 3 7 6 12
14 11 19 -4 24 1 27 25 18z m-1794 -153 c0 -6 -4 -13 -10 -16 -5 -3 -10 1 -10
9 0 9 5 16 10 16 6 0 10 -4 10 -9z m-40 -31 c0 -22 -22 -39 -28 -22 -2 7 -10
12 -18 12 -8 0 -14 5 -14 10 0 6 7 10 15 10 8 0 15 4 15 10 0 5 7 7 15 4 8 -4
15 -14 15 -24z m-190 10 c0 -5 -2 -10 -4 -10 -3 0 -8 5 -11 10 -3 6 -1 10 4
10 6 0 11 -4 11 -10z m-390 -270 c0 -5 -2 -10 -4 -10 -3 0 -8 5 -11 10 -3 6
-1 10 4 10 6 0 11 -4 11 -10z m5 -40 c-28 -12 -37 -12 -30 0 3 6 16 10 28 9
21 0 21 -1 2 -9z m-648 -275 c-4 -8 -11 -15 -17 -15 -7 0 -7 6 0 21 13 23 26
19 17 -6z m-693 -462 c-4 -16 -19 -55 -34 -88 -28 -59 -40 -90 -46 -110 -1 -5
-9 -28 -17 -51 -8 -22 -12 -53 -10 -69 4 -19 1 -30 -11 -37 -11 -6 -16 -23
-16 -53 0 -33 -4 -45 -15 -45 -17 0 -20 16 -5 25 13 8 13 35 -1 35 -6 0 -13
-9 -16 -20 -3 -11 -10 -20 -16 -20 -8 0 -7 -4 1 -12 7 -7 8 -17 1 -30 -7 -12
-6 -18 1 -18 6 0 13 7 16 15 8 21 25 8 17 -13 -4 -12 0 -11 14 6 11 12 26 22
32 22 6 0 14 14 18 30 6 30 6 31 24 12 28 -31 29 -58 2 -54 -25 4 -30 -7 -11
-26 9 -9 9 -12 0 -12 -7 0 -12 5 -12 10 0 16 -37 12 -44 -5 -3 -8 -13 -15 -21
-15 -12 0 -15 -6 -10 -22 12 -39 48 -108 57 -108 4 0 21 -19 38 -41 22 -31 28
-49 25 -70 -3 -17 -1 -29 5 -29 6 0 8 -5 5 -10 -4 -6 -10 -24 -15 -40 -8 -28
-7 -29 17 -19 14 5 28 7 31 4 7 -7 -31 -34 -40 -29 -4 3 -13 -16 -19 -41 -13
-50 -18 -55 -62 -64 -22 -5 -32 -14 -41 -41 -8 -25 -28 -45 -80 -80 -39 -26
-77 -45 -86 -43 -9 2 -24 -4 -33 -15 -14 -15 -16 -25 -7 -46 6 -17 14 -24 22
-20 7 4 8 3 4 -5 -4 -6 0 -14 10 -18 10 -4 19 -2 22 5 2 7 8 12 13 12 5 0 4
-10 -3 -22 -7 -13 -11 -26 -10 -30 3 -12 -31 -48 -45 -48 -7 0 -10 -7 -7 -15
5 -11 -1 -15 -19 -15 -14 0 -27 -7 -31 -15 -4 -11 -11 -13 -28 -6 -13 4 -31 7
-40 6 -12 -2 -15 2 -11 13 14 36 40 41 52 10 9 -22 10 -21 24 13 9 19 19 48
23 63 l7 28 -34 -18 c-19 -10 -50 -20 -69 -23 -31 -6 -34 -9 -38 -46 -2 -25
-10 -45 -23 -54 -11 -8 -19 -25 -19 -42 0 -20 -5 -29 -16 -29 -11 0 -14 -6 -8
-22 3 -13 10 -24 14 -26 16 -6 -27 -166 -46 -167 -43 -3 -64 -29 -64 -82 0
-13 -4 -23 -10 -23 -5 0 -10 -7 -10 -16 0 -8 -4 -13 -8 -10 -4 2 -9 -5 -9 -17
-1 -12 -5 -32 -8 -44 -4 -16 -1 -23 10 -23 8 0 15 5 15 11 0 5 5 7 10 4 6 -4
8 -11 5 -16 -3 -5 1 -6 9 -3 18 7 20 -4 6 -40 -5 -14 -16 -26 -24 -26 -13 0
-22 -34 -25 -100 -1 -14 -2 -32 -4 -40 -4 -25 17 -27 28 -2 5 12 15 20 22 18
7 -3 15 0 19 6 4 7 10 5 15 -5 11 -18 -2 -57 -25 -76 -9 -7 -16 -22 -16 -32 0
-10 -6 -21 -12 -25 -7 -4 -10 -4 -6 1 9 9 -9 45 -22 45 -13 0 -5 -83 8 -88 6
-2 13 2 17 7 8 14 45 14 45 0 0 -22 18 2 24 32 3 18 9 30 12 27 9 -9 10 -108
2 -108 -4 0 -8 5 -8 10 0 6 -4 10 -10 10 -5 0 -10 -12 -10 -26 0 -21 4 -25 17
-20 10 4 5 -5 -12 -23 -35 -35 -49 -39 -40 -11 4 11 2 20 -4 20 -6 0 -11 -6
-12 -12 -6 -70 -10 -105 -14 -115 -2 -7 0 -15 6 -19 6 -3 10 -18 9 -32 -1 -15
-1 -31 0 -37 6 -35 0 -119 -9 -128 -6 -6 -11 -21 -11 -34 0 -17 6 -23 23 -23
13 0 28 -5 35 -12 9 -9 12 -9 12 0 0 7 -4 12 -9 12 -14 0 -22 76 -11 104 14
37 27 32 22 -9 -5 -40 15 -75 29 -53 6 9 9 6 9 -10 0 -13 -4 -20 -10 -17 -6 4
-10 -5 -10 -19 0 -14 4 -26 9 -26 13 0 11 -74 -2 -82 -6 -4 -10 -23 -8 -44 2
-24 -1 -34 -8 -30 -7 5 -10 -5 -10 -26 2 -53 0 -70 -10 -64 -4 3 -11 19 -14
36 -8 35 -22 39 -30 8 -6 -22 22 -93 54 -140 11 -14 19 -33 19 -42 0 -9 6 -16
13 -16 7 -1 5 -6 -5 -14 -20 -14 -24 -51 -8 -61 6 -3 10 -16 10 -28 -1 -20 -2
-20 -11 -4 -15 25 -32 10 -24 -22 8 -30 12 -50 20 -111 4 -25 13 -58 20 -75 8
-16 19 -52 26 -79 8 -32 18 -50 31 -54 10 -2 18 -8 18 -13 0 -4 5 -20 12 -36
7 -15 13 -50 13 -78 1 -55 24 -112 44 -107 10 2 12 -6 7 -32 -6 -31 -4 -35 22
-47 22 -10 29 -20 30 -43 0 -17 9 -37 20 -45 10 -9 22 -24 25 -33 4 -10 16
-18 27 -18 11 0 20 -4 20 -10 0 -5 3 -9 8 -9 18 3 26 -2 14 -9 -9 -6 0 -14 28
-28 41 -20 63 -45 31 -37 -14 3 -20 -3 -25 -27 -10 -54 -8 -63 14 -57 21 5 29
-8 9 -15 -22 -7 1 -47 29 -50 18 -2 31 -12 40 -30 7 -16 17 -28 23 -28 5 0 9
-12 9 -27 l0 -27 -29 30 c-16 16 -30 38 -32 48 -5 25 -29 33 -29 9 0 -10 22
-41 49 -70 41 -44 49 -58 48 -88 -1 -25 4 -40 16 -46 9 -6 17 -16 17 -23 0 -7
9 -21 19 -30 11 -10 22 -28 25 -42 4 -13 13 -24 21 -24 8 0 15 -8 15 -19 0
-10 7 -24 16 -32 8 -7 24 -29 34 -49 10 -20 35 -51 54 -68 19 -16 32 -32 30
-35 -3 -3 3 -4 12 -4 11 1 20 -8 25 -23 4 -14 7 -21 8 -16 1 6 7 1 15 -10 8
-10 25 -19 38 -19 26 0 38 -33 16 -46 -10 -6 -4 -17 23 -44 29 -27 38 -32 43
-20 3 8 15 15 27 15 12 0 20 -2 18 -4 -2 -2 -7 -4 -11 -3 -4 1 -15 -8 -23 -20
-15 -21 -14 -25 6 -53 13 -16 28 -30 35 -30 6 0 15 -7 18 -16 13 -33 -5 -27
-40 11 -23 26 -42 39 -55 37 -10 -2 -19 2 -19 8 0 6 -45 61 -100 120 -55 60
-100 113 -100 117 0 4 -12 22 -28 38 -34 37 -71 83 -97 119 -11 16 -24 33 -30
40 -5 6 -30 38 -55 71 -44 59 -57 80 -99 160 -11 22 -30 54 -40 70 -33 50
-151 292 -151 309 0 8 -4 18 -10 21 -5 3 -10 13 -10 22 0 19 -20 67 -66 156
-18 37 -34 73 -34 79 0 6 -9 30 -20 52 -10 23 -26 70 -35 106 -9 36 -21 75
-27 87 -6 12 -8 29 -5 38 4 9 -2 24 -12 34 -11 11 -18 21 -16 23 8 7 -43 169
-61 194 -11 15 -23 34 -29 43 -5 9 -16 20 -23 24 -7 5 -10 12 -7 17 3 4 -7 15
-21 25 -14 9 -30 30 -36 46 -7 22 -19 32 -40 36 -25 5 -29 10 -25 31 3 13 -2
36 -9 51 -12 22 -12 26 1 29 8 2 13 8 10 13 -4 5 6 9 22 9 51 0 55 12 18 59
-19 24 -35 53 -35 65 0 12 -6 31 -14 42 -8 11 -14 31 -14 44 0 14 -3 59 -7
100 -6 67 -3 86 24 175 16 55 26 101 21 103 -5 2 0 20 11 41 11 21 24 52 29
70 7 27 6 31 -10 31 -34 0 -35 22 -3 49 17 14 33 37 35 51 2 21 -2 27 -29 35
-18 5 -33 13 -33 17 0 4 -13 8 -29 8 -39 0 -48 17 -21 40 12 10 19 24 15 29
-11 19 28 111 50 117 24 6 54 44 58 73 2 11 13 31 25 44 12 13 20 26 16 29 -3
4 0 16 6 28 8 15 8 20 1 16 -17 -11 -26 24 -13 45 7 10 12 33 12 50 0 21 9 38
30 56 22 18 30 33 30 58 0 18 5 35 11 37 5 2 11 10 13 18 1 8 8 27 15 41 12
23 10 29 -18 59 -17 19 -28 36 -26 38 2 3 0 13 -6 24 -8 15 -5 24 20 47 21 20
31 38 31 59 0 17 5 32 11 34 9 3 9 10 0 27 -15 28 -7 39 14 21 14 -11 17 -10
22 9 4 16 10 20 26 15 18 -6 19 -3 14 42 -8 74 1 108 34 128 17 10 29 26 29
38 0 12 18 38 40 59 22 21 40 45 40 53 0 9 13 37 30 62 16 26 32 64 35 83 4
20 8 45 10 57 6 26 67 94 84 94 8 0 11 6 7 17 -4 10 -4 14 0 10 8 -8 30 30 83
140 22 45 51 97 65 116 14 19 26 41 26 50 0 23 61 87 82 87 10 0 18 5 18 10 0
6 5 10 10 10 6 0 8 -11 4 -27z m5411 -63 c0 -1 11 -3 25 -4 46 -2 52 -15 22
-41 -15 -14 -21 -25 -14 -25 6 0 12 -4 12 -9 0 -5 -11 -8 -23 -7 -22 3 -24 -1
-20 -31 2 -18 -1 -33 -6 -33 -11 0 -71 31 -86 45 -31 27 23 115 68 110 12 -1
22 -4 22 -5z m-5385 -140 c0 -16 -23 -60 -32 -60 -11 0 -10 14 4 45 11 25 28
34 28 15z m2174 -46 c8 -22 8 -24 -8 -24 -18 0 -29 16 -21 30 9 15 22 12 29
-6z m636 -3 c0 -12 -20 -25 -27 -18 -7 7 6 27 18 27 5 0 9 -4 9 -9z m3200 -1
c0 -5 -5 -10 -11 -10 -5 0 -7 5 -4 10 3 6 8 10 11 10 2 0 4 -4 4 -10z m-6090
-24 c0 -7 -6 -20 -13 -30 -18 -24 -28 -2 -16 32 9 23 29 22 29 -2z m6300 -91
c11 -13 10 -14 -4 -9 -9 3 -16 10 -16 15 0 13 6 11 20 -6z m-4035 -36 c9 -14
6 -16 -42 -22 -34 -3 -43 -1 -43 10 0 10 7 14 20 10 11 -3 20 -1 20 4 0 13 37
11 45 -2z m-10 -39 c3 -5 1 -10 -4 -10 -6 0 -11 5 -11 10 0 6 2 10 4 10 3 0 8
-4 11 -10z m676 -58 c-12 -17 -21 -33 -21 -36 0 -12 38 -6 43 7 6 17 37 -10
37 -33 0 -25 -24 -32 -37 -10 -15 23 -60 31 -74 14 -17 -20 -32 -17 -20 4 12
23 83 93 89 88 2 -3 -5 -18 -17 -34z m4033 -37 c-13 -31 -31 -67 -40 -80 l-16
-25 46 0 46 0 -24 -39 c-34 -54 -20 -66 60 -52 102 19 149 15 186 -18 36 -31
77 -46 149 -56 25 -4 52 -10 59 -15 15 -9 5 -30 -16 -30 -12 0 -12 -4 -4 -21
8 -15 8 -24 0 -34 -7 -8 -9 -19 -6 -24 4 -5 2 -12 -4 -16 -11 -7 -130 43 -130
55 0 4 -8 11 -17 14 -10 4 -34 16 -53 26 -42 24 -127 27 -156 6 -23 -17 -16
-26 28 -36 l33 -7 -28 -13 c-33 -16 -30 -34 6 -38 15 -2 27 -8 27 -13 0 -5 7
-9 15 -9 9 0 19 -10 24 -23 5 -13 21 -31 35 -40 14 -9 33 -25 43 -36 10 -10
29 -22 43 -25 19 -6 21 -5 10 3 -9 7 -10 11 -3 11 6 0 15 -4 18 -10 3 -5 17
-10 30 -10 18 0 23 4 18 16 -5 14 -1 15 28 9 64 -13 77 -28 84 -99 5 -44 13
-70 26 -82 10 -9 19 -23 19 -31 0 -7 6 -13 14 -13 22 0 29 -37 16 -85 -17 -61
-108 -151 -161 -160 -47 -8 -59 -28 -34 -55 16 -18 15 -19 -14 -35 -17 -8 -31
-20 -31 -25 0 -6 -7 -10 -15 -10 -25 0 -17 -18 15 -35 40 -21 55 -49 34 -66
-9 -8 -14 -25 -12 -45 1 -20 -4 -40 -15 -52 -9 -10 -17 -33 -17 -50 0 -18 -6
-41 -12 -52 -10 -16 -10 -24 2 -42 8 -13 15 -47 16 -77 1 -29 6 -63 12 -75 18
-38 28 -120 19 -161 -16 -80 -22 -171 -14 -220 6 -41 1 -178 -19 -470 -1 -22
-5 -85 -7 -140 -3 -55 -13 -120 -21 -144 -9 -24 -13 -53 -10 -65 3 -12 -2 -35
-10 -51 -9 -17 -16 -35 -16 -41 0 -6 -8 -22 -18 -35 -10 -13 -24 -43 -30 -65
-7 -23 -28 -68 -47 -100 -19 -32 -35 -63 -35 -70 0 -7 -7 -17 -16 -22 -9 -5
-17 -23 -18 -40 -1 -18 -10 -37 -20 -45 -11 -8 -16 -19 -12 -26 4 -6 -1 -23
-12 -39 -11 -15 -23 -38 -27 -52 -4 -14 -13 -34 -20 -45 -6 -11 -18 -38 -25
-60 -7 -22 -19 -49 -25 -60 -7 -11 -15 -36 -19 -55 -3 -19 -31 -70 -60 -115
-38 -55 -56 -94 -61 -126 -5 -35 -18 -59 -49 -95 -24 -27 -51 -64 -60 -83 -10
-18 -32 -49 -48 -67 -34 -38 -97 -136 -130 -204 -12 -25 -54 -79 -94 -120 -39
-41 -87 -92 -105 -113 -19 -22 -56 -62 -82 -90 -27 -29 -52 -62 -57 -74 -5
-12 -26 -29 -47 -38 -39 -16 -131 -81 -173 -123 -14 -13 -54 -45 -90 -70 -36
-25 -84 -63 -107 -83 -23 -21 -66 -52 -97 -69 -30 -17 -66 -42 -78 -56 -13
-13 -31 -24 -40 -24 -9 0 -20 -5 -24 -11 -3 -6 -25 -19 -48 -29 -22 -9 -82
-44 -131 -77 -50 -33 -101 -63 -113 -67 -13 -4 -54 -29 -92 -56 -39 -26 -84
-53 -100 -60 -17 -7 -30 -16 -30 -20 0 -4 -22 -22 -49 -39 -50 -32 -121 -55
-201 -65 -45 -5 -114 -26 -126 -39 -4 -4 -20 -7 -35 -7 -15 0 -30 -4 -34 -10
-8 -13 -35 -1 -35 15 0 8 10 15 23 17 16 2 23 11 25 31 4 29 20 35 41 14 10
-10 12 -8 9 8 -2 12 3 21 14 23 13 2 16 -1 12 -12 -4 -11 0 -16 13 -16 32 0
72 24 75 45 4 24 68 57 84 44 7 -6 24 -3 44 8 24 12 35 13 38 5 2 -8 9 -9 21
-2 10 5 21 7 24 4 2 -3 20 4 38 15 19 12 42 21 52 21 9 0 17 4 17 9 0 5 16 15
35 21 19 6 35 15 35 19 0 4 15 13 34 19 19 7 51 26 72 43 20 16 42 28 48 26 6
-2 18 4 28 12 9 9 38 27 64 41 26 14 56 33 66 43 10 10 44 30 76 44 31 15 74
44 94 65 20 21 43 38 52 38 16 0 63 56 59 71 -2 5 6 9 16 9 11 0 31 14 44 30
14 17 30 30 34 30 17 0 70 65 77 93 4 18 13 27 25 27 15 0 18 5 13 22 -3 15
-2 19 7 14 6 -4 19 1 29 13 9 12 31 22 47 23 34 2 77 44 70 68 -7 24 11 43 34
37 25 -6 26 -3 5 18 -15 14 -15 18 0 50 19 39 41 46 49 15 3 -11 10 -20 15
-20 21 0 82 68 82 91 0 26 53 91 83 102 9 4 17 13 17 21 0 8 8 20 18 25 9 6
11 11 5 11 -7 0 -13 9 -13 21 0 16 -4 19 -20 14 -21 -7 -28 9 -10 20 6 4 8 9
6 13 -2 4 3 16 11 27 12 16 14 16 10 3 -8 -23 13 -35 27 -16 6 8 17 13 25 10
9 -3 11 1 7 14 -3 11 0 26 7 34 14 19 57 24 57 7 0 -16 61 51 77 83 7 14 13
34 15 45 2 11 10 19 18 18 16 -3 71 99 70 130 0 9 11 27 25 39 14 12 23 28 21
35 -3 7 -1 13 4 13 14 0 23 41 12 52 -7 7 -10 4 -9 -7 1 -10 -4 -20 -11 -22
-8 -3 -11 5 -8 28 2 25 8 33 25 34 23 2 41 20 41 42 0 7 6 10 13 8 8 -4 12 5
13 25 1 40 34 100 54 100 9 0 26 13 37 28 17 23 20 35 13 63 -4 19 -8 26 -9
17 -1 -21 -12 -23 -29 -6 -9 9 -12 9 -12 0 0 -7 5 -12 10 -12 6 0 10 -4 10
-10 0 -5 -8 -10 -18 -10 -10 0 -22 -3 -26 -7 -16 -16 -42 -10 -63 14 l-23 26
-24 -26 c-37 -40 -116 -49 -116 -12 0 17 60 85 76 85 7 0 27 19 45 42 l33 41
-22 15 c-12 8 -22 23 -22 34 0 27 31 78 47 78 19 0 27 -28 14 -44 -14 -17 2
-31 24 -22 19 7 19 30 0 46 -9 8 -12 22 -8 43 8 46 34 98 47 96 27 -3 46 2 60
17 19 18 22 49 4 38 -7 -5 -9 -1 -6 13 3 11 1 28 -4 38 -8 14 -7 16 8 13 11
-2 18 -9 17 -16 -2 -6 4 -9 12 -5 10 3 13 12 10 24 -4 13 -1 19 9 19 8 0 17
-10 19 -22 l4 -23 8 22 c4 11 16 24 27 26 11 3 17 10 14 16 -3 5 5 18 19 29
14 11 25 25 25 31 0 16 32 51 47 51 7 0 13 11 13 26 0 14 4 23 10 19 6 -3 10
4 10 17 1 13 7 34 15 48 18 32 19 44 1 37 -40 -16 -43 71 -5 125 10 15 19 31
19 37 0 5 7 11 15 15 18 6 19 43 4 83 -6 15 -11 51 -12 79 -1 35 -5 51 -14 51
-10 0 -12 -8 -8 -26 3 -15 0 -34 -8 -45 -13 -18 -15 -17 -25 12 -6 17 -8 40
-5 51 5 21 29 35 37 22 3 -5 17 -6 32 -3 32 6 48 44 39 92 -3 19 -7 46 -9 60
-1 14 -8 36 -15 49 -15 27 -7 83 14 101 8 7 15 22 15 33 0 20 0 20 15 1 11
-15 15 -16 15 -4 1 8 4 46 9 84 6 61 5 72 -11 88 -18 18 -18 20 3 58 19 33 21
44 11 65 -8 16 -19 25 -29 23 -14 -2 -19 5 -21 32 -2 19 0 32 3 28 12 -12 32
15 39 54 6 33 4 38 -24 58 -34 24 -64 75 -54 91 4 8 9 7 14 -1 12 -20 23 45
15 90 -4 25 -16 47 -31 59 -27 21 -32 36 -8 27 25 -10 11 17 -17 31 -13 7 -24
16 -24 20 0 19 -30 99 -40 105 -6 5 -3 8 8 8 23 0 22 32 -3 55 -11 10 -20 26
-20 36 0 10 -5 21 -11 25 -7 4 -9 20 -6 40 5 31 0 39 -61 100 -61 62 -67 71
-72 118 -3 35 -1 54 8 61 10 8 10 17 0 43 -7 17 -18 32 -25 32 -9 0 -12 13 -9
42 2 23 0 49 -4 58 -5 8 -14 30 -20 48 -7 17 -16 32 -21 32 -4 0 -14 18 -20
40 -7 22 -16 40 -21 40 -4 0 -8 5 -8 11 0 6 -7 17 -15 26 -12 12 -13 18 -4 29
6 8 9 25 7 39 -4 17 -1 25 8 25 18 0 18 10 -2 38 -8 12 -11 22 -7 22 5 0 14
-9 21 -20 13 -21 32 -27 32 -10 0 18 73 80 95 80 13 0 28 7 35 15 26 31 28 13
4 -40z m-3329 28 c-4 -10 -8 -23 -8 -30 -1 -17 -37 4 -37 21 0 18 10 26 33 26
14 0 17 -4 12 -17z m-122 1 c3 -3 -2 -14 -11 -24 -11 -14 -20 -16 -33 -9 -25
13 -39 11 -39 -5 0 -17 -37 -28 -46 -14 -10 16 20 39 57 45 19 2 36 7 38 9 6
6 27 5 34 -2z m3127 -26 c0 -19 -16 -5 -17 14 -2 18 0 20 7 8 5 -8 10 -18 10
-22z m-6549 -31 c-8 -8 -15 -6 -25 8 -18 25 1 40 22 18 11 -11 12 -17 3 -26z
m6499 29 c0 -22 -16 -28 -29 -12 -9 11 -9 15 1 19 22 9 28 8 28 -7z m-3410
-21 c-7 -9 -15 -13 -17 -11 -7 7 7 26 19 26 6 0 6 -6 -2 -15z m3370 -15 c0 -5
-2 -10 -4 -10 -3 0 -8 5 -11 10 -3 6 -1 10 4 10 6 0 11 -4 11 -10z m-3439 -52
c-45 -46 -77 -96 -66 -106 3 -4 9 -1 13 5 10 15 74 53 91 53 12 0 11 -3 -1
-17 -9 -10 -13 -23 -11 -30 2 -6 -6 -18 -18 -26 -11 -9 -18 -20 -14 -26 3 -6
3 -11 -2 -11 -4 0 -15 -15 -22 -32 -8 -18 -36 -55 -62 -83 -82 -87 -136 -206
-116 -255 5 -14 9 -33 8 -44 -2 -11 2 -16 8 -12 6 4 11 14 11 22 0 16 71 156
76 151 2 -2 -6 -31 -16 -66 -24 -76 -25 -93 -4 -63 18 25 34 21 34 -10 0 -16
5 -19 23 -16 20 4 23 1 19 -23 -5 -32 30 -61 64 -53 12 3 25 1 28 -5 4 -6 16
-11 27 -11 27 0 22 -46 -8 -80 -13 -14 -23 -28 -23 -31 0 -4 -11 -10 -24 -13
-14 -3 -30 -19 -38 -36 -7 -17 -23 -33 -35 -36 -31 -8 -74 4 -71 19 3 19 -13
58 -22 52 -5 -3 -11 -1 -15 5 -4 6 -18 -2 -36 -19 -32 -33 -37 -43 -14 -35 8
4 15 12 15 20 0 8 7 14 15 14 8 0 15 -6 15 -14 0 -20 -38 -45 -60 -41 -11 2
-23 -6 -30 -21 -9 -17 -22 -24 -42 -24 -16 0 -28 -5 -28 -12 0 -10 -2 -10 -9
0 -6 11 -10 10 -16 -5 -5 -10 -7 -23 -6 -30 3 -20 -20 -26 -45 -12 -29 15 -30
19 -1 63 18 30 28 35 59 36 35 0 37 2 35 30 -1 16 -6 30 -10 30 -5 0 -6 20 -3
44 6 43 -7 71 -23 50 -9 -13 -35 -11 -44 4 -6 9 -18 11 -35 7 -20 -5 -23 -4
-15 7 12 16 5 88 -9 88 -6 0 -8 -13 -4 -31 6 -32 -6 -59 -27 -59 -8 0 -8 3 0
11 17 17 -5 63 -23 48 -7 -6 -18 -8 -23 -4 -6 3 -13 -5 -17 -19 -4 -16 -11
-23 -20 -19 -9 3 -14 -2 -14 -15 0 -57 54 -104 85 -73 13 13 17 14 24 2 5 -8
18 -12 30 -8 12 3 21 1 21 -4 0 -5 6 -9 14 -9 20 0 27 -13 14 -30 -8 -12 -9
-12 -4 3 4 11 2 16 -5 12 -6 -4 -8 -14 -5 -22 7 -16 -5 -29 -49 -57 l-30 -19
23 25 c27 30 28 38 2 31 -11 -3 -27 0 -35 7 -12 10 -15 10 -15 -3 0 -8 -7 -18
-16 -21 -13 -5 -15 -1 -10 19 8 33 1 44 -25 38 -15 -4 -19 -11 -15 -26 4 -15
2 -17 -7 -8 -16 16 -30 14 -23 -5 3 -9 2 -12 -5 -9 -5 4 -8 12 -6 18 2 7 -5
20 -16 30 -25 21 -31 22 -23 2 3 -9 0 -15 -8 -15 -17 0 -27 45 -13 59 7 7 5
16 -6 29 -9 10 -14 21 -11 24 3 4 -4 16 -15 27 -27 27 -27 75 -1 101 11 11 20
25 20 30 0 6 7 10 16 10 8 0 23 7 31 16 10 10 25 13 40 9 13 -3 29 -2 36 2 7
4 17 8 22 10 6 1 21 5 35 8 20 6 22 5 10 -5 -12 -9 -10 -10 10 -4 32 8 30 5
23 47 -4 26 -11 37 -23 37 -18 0 -44 -23 -35 -31 2 -3 -4 -5 -14 -6 -14 -1
-17 4 -14 18 5 19 44 35 74 31 8 -2 20 8 26 20 59 131 62 143 41 151 -7 3 -8
6 -3 6 6 0 16 -3 23 -8 10 -6 8 -20 -12 -64 -28 -60 -34 -112 -13 -120 7 -3 5
-6 -5 -6 -10 -1 -18 -5 -18 -10 0 -15 18 -23 25 -11 11 18 22 2 29 -41 6 -38
18 -50 50 -50 8 0 38 92 53 164 5 25 3 27 -26 27 -19 0 -30 4 -26 10 3 6 18
10 32 10 25 0 63 25 63 41 0 4 16 34 35 66 39 65 41 73 19 73 -8 0 -12 5 -9
10 5 8 11 7 20 0 11 -9 18 -6 32 11 25 33 114 120 149 146 44 34 42 18 -5 -29z
m3664 22 c3 -5 1 -10 -4 -10 -6 0 -11 5 -11 10 0 6 2 10 4 10 3 0 8 -4 11 -10z
m-3172 -14 c8 -20 -32 -42 -67 -38 l-29 4 39 23 c47 28 50 29 57 11z m3007
-22 c0 -8 -3 -14 -8 -14 -11 0 -32 37 -25 44 9 8 33 -14 33 -30z m-3780 17 c0
-6 -4 -13 -10 -16 -5 -3 -10 1 -10 9 0 9 5 16 10 16 6 0 10 -4 10 -9z m3930
-33 c0 -5 -4 -8 -10 -8 -5 0 -10 10 -10 23 0 18 2 19 10 7 5 -8 10 -18 10 -22z
m-4724 -29 c-9 -13 -16 -21 -17 -19 0 3 -2 14 -4 25 -4 22 15 39 29 25 5 -5 1
-18 -8 -31z m-43 23 c3 7 5 1 4 -14 -1 -23 -6 -28 -27 -28 -19 0 -22 -2 -10
-10 8 -5 11 -12 7 -16 -9 -10 -37 15 -37 34 0 21 32 43 46 31 8 -7 14 -5 17 3z
m798 -19 c-12 -20 -14 -14 -5 12 4 9 9 14 11 11 3 -2 0 -13 -6 -23z m668 -5
c-6 -10 -7 -18 -3 -18 3 0 1 -7 -6 -15 -10 -12 -15 -12 -35 1 -15 10 -32 13
-45 9 -22 -7 -22 -7 -2 13 23 23 38 29 73 28 23 -1 25 -4 18 -18z m3204 -38
c-3 -11 -9 -20 -14 -20 -5 0 -9 9 -9 20 0 11 6 20 14 20 9 0 12 -7 9 -20z
m-1462 -44 c8 4 9 3 5 -4 -14 -23 -36 -13 -35 16 0 26 0 27 10 4 5 -14 13 -20
20 -16z m1453 -2 c5 -14 4 -15 -9 -4 -17 14 -19 20 -6 20 5 0 12 -7 15 -16z
m-3459 -73 c-3 -12 -15 -21 -26 -21 -16 0 -18 3 -9 19 9 18 31 32 38 25 2 -1
1 -12 -3 -23z m3535 19 c0 -5 -4 -10 -10 -10 -5 0 -10 5 -10 10 0 6 5 10 10
10 6 0 10 -4 10 -10z m-4783 -26 c-3 -3 -12 -4 -19 -1 -8 3 -5 6 6 6 11 1 17
-2 13 -5z m1393 -39 c0 -8 -4 -15 -9 -15 -5 0 -11 7 -15 15 -3 9 0 15 9 15 8
0 15 -7 15 -15z m-1533 -17 c-3 -8 -6 -5 -6 6 -1 11 2 17 5 13 3 -3 4 -12 1
-19z m1605 -70 c2 -17 -2 -24 -19 -26 -17 -3 -26 4 -34 25 -5 15 -16 31 -22
36 -7 5 -2 6 11 2 21 -6 23 -5 13 14 -10 17 -9 20 4 15 9 -4 15 -1 15 7 1 19
28 -44 32 -73z m-3332 52 c-45 -25 -53 -25 -38 0 8 13 23 20 43 20 l30 -1 -35
-19z m1394 -21 c21 -31 31 -37 37 -27 5 7 9 8 9 3 0 -6 12 -23 26 -38 21 -23
23 -31 14 -42 -15 -18 -47 -19 -53 -2 -4 9 -8 9 -15 -2 -23 -33 -62 41 -62
117 0 17 3 32 8 32 4 0 20 -19 36 -41z m5196 31 c0 -5 -2 -10 -4 -10 -3 0 -8
5 -11 10 -3 6 -1 10 4 10 6 0 11 -4 11 -10z m-910 -10 c0 -5 -7 -10 -15 -10
-8 0 -15 5 -15 10 0 6 7 10 15 10 8 0 15 -4 15 -10z m-3970 -55 c0 -14 5 -25
10 -25 6 0 10 -9 10 -20 0 -13 6 -20 14 -18 8 2 24 -8 35 -21 l21 -24 -20 -22
c-24 -26 -26 -39 -4 -31 22 9 76 -51 69 -75 -5 -14 -1 -19 11 -19 13 0 14 -3
5 -14 -19 -23 7 -58 39 -54 47 7 79 -45 78 -124 -1 -33 4 -50 20 -66 12 -12
22 -27 22 -33 0 -5 4 -8 9 -4 5 3 13 0 16 -6 9 -14 -24 -38 -52 -39 -13 0 -24
-6 -24 -12 -3 -28 -8 -54 -15 -76 -5 -16 -3 -21 7 -17 8 3 26 -6 42 -20 26
-25 41 -13 15 13 -7 7 -8 12 -3 12 13 -1 51 -29 48 -35 -7 -12 -2 -25 8 -25 6
0 16 -6 24 -13 11 -11 10 -15 -6 -25 -10 -6 -25 -9 -32 -6 -21 7 -28 -43 -10
-62 13 -12 12 -14 -1 -14 -14 0 -13 -3 2 -18 10 -10 27 -22 37 -25 10 -4 15
-10 11 -14 -3 -4 5 -19 20 -34 16 -17 22 -29 15 -33 -14 -9 -33 2 -26 14 3 5
-8 2 -25 -6 -31 -16 -48 -34 -31 -34 5 0 11 6 14 13 9 24 20 -4 21 -53 1 -47
0 -49 -23 -43 -20 5 -22 3 -16 -16 10 -33 -14 -25 -26 8 -10 27 -13 29 -39 20
-23 -9 -29 -18 -35 -55 -8 -53 -29 -107 -38 -98 -3 3 -10 -9 -15 -27 -10 -35
-10 -34 -31 23 -9 24 -14 27 -39 22 -43 -9 -68 23 -75 94 -2 31 -4 72 -2 90 2
26 -1 32 -15 32 -18 0 -18 2 -4 38 23 54 61 101 88 108 17 4 22 11 19 25 -3
11 0 19 6 19 7 0 27 10 46 23 27 18 31 26 23 41 -5 9 -7 20 -4 23 3 4 1 12 -5
19 -6 8 -8 21 -5 30 7 18 -14 74 -27 74 -4 0 -3 9 3 21 13 24 11 28 -20 34
-13 3 -39 21 -59 42 l-35 37 24 7 c14 4 39 8 55 9 l30 1 -32 16 c-31 16 -47
53 -22 53 5 0 7 5 4 10 -3 6 3 10 15 10 14 0 19 4 13 13 -4 6 -8 18 -9 25 -3
18 -14 29 -14 14 0 -7 -5 -12 -11 -12 -6 0 -9 6 -6 14 3 8 1 16 -5 18 -14 5
-21 48 -8 48 6 0 10 5 10 11 0 5 -4 8 -9 5 -5 -4 -11 -3 -14 1 -2 5 -2 2 -1
-4 4 -16 -12 -17 -21 -2 -4 6 -17 14 -29 19 l-21 9 23 0 c21 1 33 21 12 21 -5
0 -9 10 -7 23 1 17 -4 23 -25 25 -17 2 -25 8 -22 16 3 7 -2 19 -11 26 -19 16
-20 69 0 76 8 4 15 17 15 30 0 13 5 24 10 24 6 0 10 -11 10 -25z m185 5 c-3
-5 -11 -10 -16 -10 -6 0 -7 5 -4 10 3 6 11 10 16 10 6 0 7 -4 4 -10z m2480
-49 c3 -6 -1 -11 -9 -11 -12 0 -16 10 -15 38 1 34 1 35 9 10 4 -14 11 -31 15
-37z m-2835 23 c0 -8 -4 -12 -10 -9 -5 3 -10 10 -10 16 0 5 5 9 10 9 6 0 10
-7 10 -16z m3414 -111 c-28 -21 -34 -16 -33 30 0 23 3 36 6 30 3 -10 9 -8 21
4 16 16 17 15 20 -17 3 -24 -2 -38 -14 -47z m-3599 47 c17 -11 31 -25 31 -32
1 -7 2 -21 3 -30 0 -10 8 -18 17 -18 8 0 12 5 9 10 -3 6 -1 10 4 10 6 0 11 -4
11 -8 0 -5 10 -8 22 -8 31 1 35 -30 7 -60 -23 -24 -49 -32 -49 -15 0 16 -68
33 -101 26 -22 -5 -36 -2 -49 10 -22 20 -18 35 11 35 11 0 17 5 14 10 -3 6 -1
10 6 10 7 0 3 10 -10 23 -45 49 12 78 74 37z m5918 13 c-13 -2 -35 -2 -50 0
-16 2 -5 4 22 4 28 0 40 -2 28 -4z m-6035 -21 c9 -7 8 -13 -8 -27 -25 -23 -75
-24 -97 -2 -15 15 -15 16 5 10 16 -4 22 -1 22 11 0 11 9 16 33 16 17 0 38 -4
45 -8z m396 -8 c5 -14 4 -15 -9 -4 -17 14 -19 20 -6 20 5 0 12 -7 15 -16z
m3761 -4 c3 -5 -3 -10 -15 -10 -12 0 -18 5 -15 10 3 6 10 10 15 10 5 0 12 -4
15 -10z m-3752 -26 c3 -4 2 -15 -3 -25 -8 -14 -6 -19 10 -24 34 -11 13 -23
-42 -24 -52 0 -118 16 -118 30 0 15 61 28 86 19 36 -14 52 -12 31 4 -18 14
-18 14 0 19 28 7 29 7 36 1z m4297 -4 c0 -12 -8 -12 -35 0 -18 8 -17 9 8 9 15
1 27 -3 27 -9z m-4740 -69 c15 -29 13 -31 -21 -31 -20 0 -29 4 -26 13 2 6 -3
17 -12 24 -14 11 -11 12 16 13 22 0 36 -6 43 -19z m501 -4 c-13 -13 -26 -3
-16 12 3 6 11 8 17 5 6 -4 6 -10 -1 -17z m-61 -27 c0 -10 -6 -22 -12 -28 -19
-14 -69 -12 -75 4 -3 8 -11 14 -19 14 -17 0 -18 17 -1 23 6 3 33 5 60 5 38 -1
47 -4 47 -18z m4145 10 c3 -5 -1 -10 -9 -10 -9 0 -16 5 -16 10 0 6 4 10 9 10
6 0 13 -4 16 -10z m-3885 -41 c0 -5 -4 -9 -10 -9 -5 0 -10 7 -10 16 0 8 5 12
10 9 6 -3 10 -10 10 -16z m4166 -50 c19 -22 19 -22 -3 -10 -13 6 -23 16 -23
21 0 15 5 12 26 -11z m-356 -13 c0 -3 -4 -8 -10 -11 -5 -3 -10 -1 -10 4 0 6 5
11 10 11 6 0 10 -2 10 -4z m530 -85 c0 -16 -6 -32 -12 -35 -7 -3 1 -5 17 -4
65 2 70 0 41 -23 -37 -29 -97 -23 -109 11 -13 38 7 80 38 80 21 0 25 -5 25
-29z m-4725 -1 c-3 -5 -13 -10 -21 -10 -8 0 -14 5 -14 10 0 6 9 10 21 10 11 0
17 -4 14 -10z m-695 -15 c0 -10 -11 -15 -35 -15 -33 0 -43 8 -28 23 13 14 63
7 63 -8z m-1263 -87 c-3 -7 -5 -2 -5 12 0 14 2 19 5 13 2 -7 2 -19 0 -25z
m5303 22 c0 -5 -4 -10 -10 -10 -5 0 -10 5 -10 10 0 6 5 10 10 10 6 0 10 -4 10
-10z m-1965 -45 c20 -20 30 -23 40 -15 10 9 16 7 24 -9 27 -50 2 -91 -60 -94
-35 -2 -48 2 -65 20 -16 17 -23 20 -32 11 -7 -7 -12 -8 -12 -4 0 5 -7 3 -15
-4 -13 -10 -15 -9 -15 12 0 36 40 85 68 83 13 -1 26 4 29 12 7 17 5 17 38 -12z
m-395 -1 c0 -17 -22 -14 -28 4 -2 7 3 12 12 12 9 0 16 -7 16 -16z m-2948 -66
c-21 -21 -28 -2 -13 32 l15 35 4 -29 c2 -16 -1 -33 -6 -38z m3482 31 c34 -27
60 -75 45 -84 -11 -7 -99 78 -99 95 0 17 26 11 54 -11z m1515 -28 c11 -19 84
-38 130 -32 21 2 23 0 12 -13 -12 -14 -4 -16 70 -17 214 -2 218 -2 261 44 31
32 36 35 40 19 3 -11 1 -27 -4 -36 -6 -10 -8 -20 -5 -23 5 -5 67 35 78 51 4 4
9 3 13 -2 3 -6 -4 -18 -16 -26 -33 -23 -12 -19 33 6 22 12 39 28 39 36 0 7 6
12 13 10 23 -8 12 -26 -38 -60 -27 -18 -51 -40 -53 -48 -2 -15 48 -50 74 -50
8 0 19 -11 24 -24 8 -22 13 -24 51 -19 39 6 41 5 34 -17 -7 -22 -6 -23 33 -16
49 7 57 -2 40 -50 -14 -39 -4 -54 40 -54 12 0 22 -4 22 -8 0 -5 11 -14 25 -20
30 -14 32 -32 5 -39 -21 -6 -23 -12 -20 -51 1 -19 -8 -39 -49 -101 -6 -10 -34
-15 -91 -17 -45 -1 -84 -5 -87 -8 -4 -3 0 -18 7 -32 11 -20 12 -29 2 -42 -7
-9 -15 -25 -18 -34 -4 -10 -13 -18 -21 -18 -19 0 -133 62 -133 72 0 5 -4 8
-10 8 -5 0 -10 -11 -10 -25 0 -50 -41 -13 -56 50 -4 17 -11 38 -16 49 -10 18
-11 17 -33 -8 -16 -18 -26 -23 -30 -15 -4 6 -1 15 6 21 11 7 9 8 -6 7 -11 -1
-27 0 -35 3 -85 28 -125 28 -133 -3 -7 -25 -38 -24 -60 1 -16 19 -16 20 1 20
31 1 -30 29 -63 29 -24 1 -27 -1 -15 -10 11 -8 8 -9 -15 -4 -16 4 -40 16 -52
27 -13 12 -27 17 -34 12 -9 -5 -10 -2 -6 10 15 40 18 64 8 70 -6 4 -11 20 -11
36 0 32 -27 54 -54 44 -8 -3 -19 2 -25 13 -26 45 -29 47 -44 35 -23 -20 -84
-18 -107 3 -11 10 -17 21 -13 24 15 10 43 60 43 74 0 8 7 20 15 27 10 9 15 9
15 1 0 -6 5 -11 10 -11 6 0 9 3 9 8 -4 25 3 32 25 26 15 -3 34 1 50 11 17 12
36 15 56 11 18 -3 30 -1 30 5 0 6 6 9 13 6 6 -2 11 -9 10 -15 -1 -5 6 -8 16
-5 17 4 18 9 9 33 -5 16 -16 34 -24 41 -14 11 -10 29 6 29 5 0 14 -8 19 -19z
m-2420 -77 c-6 -8 -16 -14 -22 -14 -8 0 -8 3 0 11 6 6 9 19 5 28 -5 14 -4 14
11 2 13 -10 15 -17 6 -27z m731 -15 c0 -5 -9 -9 -20 -9 -22 0 -27 16 -7 23 15
5 27 -1 27 -14z m198 -25 l2 -29 -14 25 c-19 31 -20 43 -3 38 6 -3 13 -18 15
-34z m-958 6 c0 -5 -4 -10 -10 -10 -5 0 -10 5 -10 10 0 6 5 10 10 10 6 0 10
-4 10 -10z m836 -17 c-10 -10 -19 5 -10 18 6 11 8 11 12 0 2 -7 1 -15 -2 -18z
m-3362 -19 c-17 -25 -26 -29 -37 -17 -9 9 33 54 44 47 5 -3 2 -16 -7 -30z
m4404 2 c8 -19 7 -34 -7 -72 -22 -56 -31 -61 -66 -38 -18 12 -23 20 -16 27 6
6 11 19 11 30 0 10 5 15 10 12 6 -4 17 10 25 29 18 42 28 45 43 12z m-4628
-87 c0 -5 -4 -9 -10 -9 -5 0 -10 7 -10 16 0 8 5 12 10 9 6 -3 10 -10 10 -16z
m6887 -17 c27 -32 28 -36 8 -56 -23 -22 -19 -46 8 -46 13 0 32 -6 43 -14 19
-15 19 -15 -1 -30 -11 -8 -26 -16 -32 -16 -23 0 -13 -17 17 -30 17 -7 35 -20
40 -30 11 -21 2 -60 -13 -55 -7 3 -31 6 -54 9 -54 5 -91 33 -99 73 -4 20 -21
46 -42 64 -30 26 -36 38 -35 69 1 46 18 78 46 90 36 14 90 1 114 -28z m-2232
8 c3 -5 1 -10 -4 -10 -6 0 -11 5 -11 10 0 6 2 10 4 10 3 0 8 -4 11 -10z
m-4459 -52 c-6 -31 -22 -56 -29 -47 -10 11 -15 69 -7 69 6 0 10 -7 10 -15 0
-8 4 -15 9 -15 5 0 7 9 4 20 -3 12 0 20 7 20 9 0 11 -10 6 -32z m7337 -20 c44
-21 48 -68 6 -68 -28 0 -57 17 -69 40 -21 38 11 52 63 28z m-7536 -180 c-3 -8
-6 -5 -6 6 -1 11 2 17 5 13 3 -3 4 -12 1 -19z m7628 -38 c3 -5 1 -10 -4 -10
-6 0 -11 5 -11 10 0 6 2 10 4 10 3 0 8 -4 11 -10z m-4909 -65 c-2 -14 -16 -22
-16 -10 0 3 0 10 0 15 0 6 4 10 9 10 5 0 8 -7 7 -15z m-2636 -47 c0 -16 -3
-19 -11 -11 -6 6 -8 16 -5 22 11 17 16 13 16 -11z m7310 -2 c0 -3 -4 -8 -10
-11 -5 -3 -10 -1 -10 4 0 6 5 11 10 11 6 0 10 -2 10 -4z m-4613 -42 c-3 -3
-12 -4 -19 -1 -8 3 -5 6 6 6 11 1 17 -2 13 -5z m-2767 -104 c0 -5 -5 -10 -11
-10 -5 0 -7 5 -4 10 3 6 8 10 11 10 2 0 4 -4 4 -10z m3945 -48 c2 -7 -7 -24
-21 -37 -32 -30 -15 -42 20 -14 l27 21 26 -28 26 -28 -23 -18 c-12 -10 -37
-18 -56 -18 -30 0 -34 -3 -34 -27 0 -57 -31 -120 -71 -142 -66 -38 -134 -25
-193 37 -22 24 -26 34 -18 48 8 14 3 23 -20 45 -27 24 -30 31 -23 66 10 54 33
100 54 106 15 4 125 -11 201 -27 27 -6 40 7 40 42 0 23 0 23 30 6 16 -10 32
-24 35 -32z m3418 -9 c-3 -7 -12 -13 -20 -13 -8 0 -11 -4 -8 -10 3 -5 1 -10
-5 -10 -13 0 -4 36 13 58 13 16 28 -3 20 -25z m-3930 -24 c-3 -12 0 -25 7 -29
13 -8 5 -50 -10 -50 -8 0 -19 88 -11 96 11 11 19 2 14 -17z m106 -35 c-18 -19
-20 -26 -9 -39 7 -8 16 -13 20 -10 5 3 11 1 15 -5 3 -6 -1 -13 -9 -16 -9 -3
-16 -13 -16 -21 0 -10 -6 -12 -22 -7 -35 10 -48 24 -44 48 3 11 5 24 5 29 1 4
6 7 12 7 6 0 17 7 25 15 9 8 13 15 9 15 -3 0 -1 10 6 22 11 19 12 20 21 4 8
-13 4 -23 -13 -42z m4091 52 c0 -3 -4 -8 -10 -11 -5 -3 -10 -1 -10 4 0 6 5 11
10 11 6 0 10 -2 10 -4z m-4720 -35 c0 -11 3 -26 6 -35 10 -25 -11 -19 -25 8
-13 24 -8 46 10 46 5 0 9 -9 9 -19z m-2882 -13 c-6 -17 -36 -34 -44 -25 -4 4
1 14 12 22 23 18 37 19 32 3z m37 -66 c-3 -3 -11 0 -18 7 -9 10 -8 11 6 5 10
-3 15 -9 12 -12z m7441 -29 c-10 -10 -19 5 -10 18 6 11 8 11 12 0 2 -7 1 -15
-2 -18z m-241 -3 c3 -11 11 -20 16 -20 5 0 9 -7 9 -15 0 -17 40 -17 52 0 5 6
8 3 8 -7 0 -9 10 -24 22 -32 19 -14 20 -16 4 -22 -12 -5 -16 -15 -14 -38 3
-29 0 -31 -37 -38 -48 -8 -94 -1 -97 15 0 7 -2 19 -3 27 0 8 7 28 18 43 18 26
18 46 1 91 -3 9 -1 16 4 16 6 0 14 -9 17 -20z m168 -3 c2 -7 -4 -23 -14 -36
-18 -22 -19 -22 -19 -3 0 42 22 68 33 39z m-2893 -7 c0 -5 -5 -10 -11 -10 -5
0 -7 5 -4 10 3 6 8 10 11 10 2 0 4 -4 4 -10z m-1055 -9 c3 -5 1 -12 -5 -16 -5
-3 -10 1 -10 9 0 18 6 21 15 7z m-3467 -44 c2 -10 -3 -17 -12 -17 -9 0 -14 8
-13 20 2 24 21 21 25 -3z m7496 -103 c12 -5 14 -10 6 -19 -8 -10 -6 -15 9 -20
25 -8 28 -25 5 -25 -20 0 -43 28 -44 53 0 19 1 20 24 11z m-7474 -14 c0 -5 -5
-10 -11 -10 -5 0 -7 5 -4 10 3 6 8 10 11 10 2 0 4 -4 4 -10z m7393 -30 c-7
-28 -13 -25 -13 6 0 14 4 23 9 20 5 -3 7 -15 4 -26z m-50 13 c-7 -2 -19 -2
-25 0 -7 3 -2 5 12 5 14 0 19 -2 13 -5z m91 -8 c-4 -8 -10 -12 -15 -9 -11 6
-2 24 11 24 5 0 7 -7 4 -15z m-1883 -18 c-10 -9 -11 -8 -5 6 3 10 9 15 12 12
3 -3 0 -11 -7 -18z m1822 -13 c3 -3 2 -16 -3 -29 -5 -14 -5 -26 2 -33 6 -6 6
-12 -1 -16 -5 -4 -15 2 -21 13 -7 14 -7 22 0 26 6 4 8 15 5 26 -6 18 5 26 18
13z m-5233 -59 c0 -7 -7 -15 -15 -19 -15 -5 -22 24 -9 37 9 9 24 -2 24 -18z
m-1490 -45 c0 -5 -4 -10 -10 -10 -5 0 -10 5 -10 10 0 6 5 10 10 10 6 0 10 -4
10 -10z m1140 -34 c0 -8 -9 -16 -20 -19 -15 -4 -20 0 -20 13 0 18 18 31 33 23
4 -2 7 -10 7 -17z m1680 14 c0 -5 -4 -10 -10 -10 -5 0 -10 5 -10 10 0 6 5 10
10 10 6 0 10 -4 10 -10z m-2346 -37 c3 -7 1 -13 -5 -13 -6 0 -7 -4 -4 -10 3
-5 -1 -10 -9 -10 -10 0 -16 9 -16 23 0 26 26 33 34 10z m6375 -77 c8 -9 8 -16
2 -20 -15 -9 -31 27 -30 66 l1 33 8 -32 c4 -18 13 -39 19 -47z m-5463 -43 c-7
-7 -26 7 -26 19 0 6 6 6 15 -2 9 -7 13 -15 11 -17z m5531 -20 c-3 -3 -11 -2
-17 2 -9 6 -9 10 1 16 14 8 27 -7 16 -18z m73 -97 c0 -18 -27 -46 -43 -46 -9
0 -9 2 -1 8 6 4 16 17 23 30 13 25 21 28 21 8z m-60 -50 c0 -3 -4 -8 -10 -11
-5 -3 -10 -1 -10 4 0 6 5 11 10 11 6 0 10 -2 10 -4z m-7520 -26 c0 -11 -2 -20
-4 -20 -2 0 -6 9 -9 20 -3 11 -1 20 4 20 5 0 9 -9 9 -20z m7263 -117 c-17 -28
-16 -33 2 -33 16 0 37 -63 23 -68 -4 -2 -8 -8 -8 -13 0 -6 5 -7 10 -4 6 3 10
-2 10 -12 0 -10 -9 -24 -20 -31 -17 -10 -20 -10 -20 5 -1 17 -1 17 -14 1 -15
-20 -36 -24 -36 -7 0 8 -4 8 -14 0 -12 -10 -17 -7 -28 15 -15 32 -46 48 -33
18 22 -52 16 -90 -10 -65 -10 9 -38 14 -62 12 -6 0 -13 -11 -15 -23 -2 -12 -7
-23 -13 -24 -11 -4 -40 55 -50 103 -5 27 -2 34 27 56 18 14 43 28 55 31 13 4
30 15 39 23 15 15 17 15 26 0 7 -14 13 -15 29 -7 11 6 17 15 14 21 -4 5 -11 7
-16 4 -5 -4 -9 1 -9 9 0 11 8 13 34 9 31 -5 35 -3 52 32 l17 37 12 -33 c9 -27
9 -39 -2 -56z m-4591 25 c2 -14 14 -25 35 -32 17 -6 35 -14 38 -18 10 -9 -13
-47 -60 -100 -23 -26 -54 -73 -70 -105 -15 -32 -34 -71 -41 -86 -20 -42 -18
-56 9 -50 18 4 16 1 -10 -18 -35 -26 -41 -61 -15 -91 13 -16 13 -18 0 -18 -19
0 -85 72 -98 106 -6 14 -10 37 -10 50 0 21 4 25 28 23 51 -4 59 1 72 42 8 23
21 51 30 63 9 11 34 54 55 94 28 53 35 76 26 81 -6 4 -9 14 -6 23 3 8 -1 21
-10 28 -21 17 -19 30 4 30 12 0 21 -8 23 -22z m-2755 -28 c-1 -11 -5 -20 -9
-20 -4 0 -8 9 -8 20 0 11 4 20 9 20 6 0 9 -9 8 -20z m2693 -2 c-1 -15 -35 -58
-45 -58 -4 0 -2 7 5 15 6 8 9 19 5 25 -3 5 -3 15 0 20 9 14 35 12 35 -2z
m1572 -76 c7 -9 25 -23 41 -29 32 -15 35 -35 8 -60 -10 -10 -21 -27 -23 -38
-2 -12 -11 -20 -24 -20 -12 0 -35 -13 -50 -29 -16 -16 -41 -33 -56 -38 -16 -6
-28 -14 -28 -19 0 -5 -4 -9 -10 -9 -5 0 -8 10 -6 23 3 12 5 28 5 36 1 9 9 12
26 9 17 -4 33 2 51 18 14 13 24 24 22 25 -2 0 -21 3 -43 5 -49 6 -96 47 -77
66 10 10 14 10 21 0 4 -7 21 -16 38 -21 24 -7 34 -5 45 8 25 29 29 49 9 44
-11 -3 -21 2 -24 11 -5 12 0 16 18 16 14 0 25 5 25 10 0 16 18 12 32 -8z
m-1892 -42 c0 -5 -5 -10 -11 -10 -5 0 -7 5 -4 10 3 6 8 10 11 10 2 0 4 -4 4
-10z m270 -24 c0 -2 3 -12 7 -22 5 -13 3 -16 -9 -11 -9 3 -25 -1 -37 -9 -21
-15 -26 -9 -15 20 3 8 12 12 21 9 11 -4 14 -2 9 5 -4 7 -1 12 8 12 9 0 16 -2
16 -4z m-65 -66 c3 -5 1 -10 -4 -10 -6 0 -11 5 -11 10 0 6 2 10 4 10 3 0 8 -4
11 -10z m-15 -24 c0 -3 -4 -8 -10 -11 -5 -3 -10 -1 -10 4 0 6 5 11 10 11 6 0
10 -2 10 -4z m20 -38 c0 -4 -12 -8 -26 -8 -14 0 -23 4 -19 9 6 11 45 10 45 -1z
m4510 2 c0 -5 -5 -10 -11 -10 -5 0 -7 5 -4 10 3 6 8 10 11 10 2 0 4 -4 4 -10z
m70 -21 c0 -5 4 -8 8 -5 4 2 8 -4 8 -15 0 -10 -3 -19 -7 -19 -13 0 -20 -33 -8
-41 16 -10 2 -29 -22 -29 -11 0 -29 -5 -40 -10 -16 -9 -19 -7 -19 12 0 37 42
118 62 118 10 0 18 -5 18 -11z m-90 -129 c0 -11 -7 -20 -15 -20 -27 0 -18 30
13 39 1 1 2 -8 2 -19z m-283 -51 c11 -27 10 -31 -10 -38 -38 -14 -48 -3 -29
35 9 18 19 34 22 34 3 0 11 -14 17 -31z m-6551 -16 c-7 -7 -26 7 -26 19 0 6 6
6 15 -2 9 -7 13 -15 11 -17z m6484 -89 c0 -2 -9 -4 -20 -4 -11 0 -20 4 -20 9
0 5 9 7 20 4 11 -3 20 -7 20 -9z m-6376 -19 c19 -29 21 -75 4 -75 -7 1 -24 8
-38 16 -24 14 -24 15 -2 11 12 -3 20 -1 16 4 -3 5 -12 9 -20 9 -15 0 -18 18
-8 44 9 23 29 20 48 -9z m6619 -22 c-3 -18 -9 -33 -14 -33 -12 0 -11 13 1 46
13 34 19 28 13 -13z m87 7 c0 -5 -2 -10 -4 -10 -3 0 -8 5 -11 10 -3 6 -1 10 4
10 6 0 11 -4 11 -10z m-60 -30 c0 -5 -5 -10 -11 -10 -5 0 -7 5 -4 10 3 6 8 10
11 10 2 0 4 -4 4 -10z m71 -60 c27 -15 24 -37 -6 -37 -13 0 -22 3 -20 7 3 5 0
10 -7 12 -6 2 -8 10 -4 16 9 15 12 15 37 2z m179 0 c0 -5 -4 -10 -10 -10 -5 0
-10 5 -10 10 0 6 5 10 10 10 6 0 10 -4 10 -10z m30 -51 c0 -18 -18 -9 -23 12
-4 16 -3 18 9 8 8 -6 14 -15 14 -20z m-6526 9 c-5 -7 -2 -9 8 -6 8 4 20 3 27
-2 10 -6 10 -11 0 -28 l-13 -21 -18 21 c-19 23 -22 31 -11 41 10 11 15 8 7 -5z
m78 -30 c-7 -7 -12 -8 -12 -2 0 14 12 26 19 19 2 -3 -1 -11 -7 -17z m-378 -33
c3 -9 0 -15 -9 -15 -16 0 -27 14 -18 24 10 10 21 7 27 -9z m36 -15 c0 -5 -2
-10 -4 -10 -3 0 -8 5 -11 10 -3 6 -1 10 4 10 6 0 11 -4 11 -10z m300 6 c0 -3
-4 -8 -10 -11 -5 -3 -10 -1 -10 4 0 6 5 11 10 11 6 0 10 -2 10 -4z m-360 -36
c0 -5 -2 -10 -4 -10 -3 0 -8 5 -11 10 -3 6 -1 10 4 10 6 0 11 -4 11 -10z
m6781 -28 c-10 -3 -11 -6 -1 -12 7 -4 9 -13 5 -19 -5 -9 -10 -9 -20 -1 -10 8
-14 7 -18 -2 -2 -7 -4 -1 -4 14 0 17 6 28 16 31 20 4 40 -5 22 -11z m-6556
-42 c3 -5 1 -10 -4 -10 -6 0 -11 5 -11 10 0 6 2 10 4 10 3 0 8 -4 11 -10z
m845 -30 c0 -5 -4 -10 -10 -10 -5 0 -10 5 -10 10 0 6 5 10 10 10 6 0 10 -4 10
-10z m5590 -170 c0 -5 -4 -10 -10 -10 -5 0 -10 5 -10 10 0 6 5 10 10 10 6 0
10 -4 10 -10z m-229 -83 c-13 -13 -15 1 -4 30 7 17 8 17 11 -1 2 -10 -1 -23
-7 -29z m-6171 2 c0 -6 -4 -7 -10 -4 -5 3 -10 11 -10 16 0 6 5 7 10 4 6 -3 10
-11 10 -16z m6213 -84 c-3 -8 -9 -15 -14 -15 -10 0 -12 24 -3 33 11 11 24 -3
17 -18z m-6132 -40 c17 6 19 1 17 -37 -1 -46 -16 -101 -17 -64 -1 16 -3 16
-20 -5 l-18 -23 -31 49 c-29 47 -35 72 -11 48 7 -7 18 -7 35 1 24 11 32 26 14
26 -5 0 -10 12 -9 28 l1 27 10 -28 c7 -21 15 -26 29 -22z m6029 14 c0 -5 -4
-9 -10 -9 -5 0 -10 7 -10 16 0 8 5 12 10 9 6 -3 10 -10 10 -16z m60 -19 c0 -5
-4 -10 -10 -10 -5 0 -10 5 -10 10 0 6 5 10 10 10 6 0 10 -4 10 -10z m-5900
-150 c0 -5 -5 -10 -11 -10 -5 0 -7 5 -4 10 3 6 8 10 11 10 2 0 4 -4 4 -10z
m-85 -100 c3 -5 1 -10 -4 -10 -6 0 -11 5 -11 10 0 6 2 10 4 10 3 0 8 -4 11
-10z m2805 -15 c0 -8 -4 -15 -10 -15 -5 0 -10 7 -10 15 0 8 5 15 10 15 6 0 10
-7 10 -15z m2410 -24 c-11 -22 -29 -35 -36 -28 -7 6 27 47 39 47 4 0 3 -9 -3
-19z m-4270 -116 c0 -8 -2 -15 -4 -15 -2 0 -6 7 -10 15 -3 8 -1 15 4 15 6 0
10 -7 10 -15z m224 -1 c22 -8 20 -24 -2 -24 -15 0 -18 -8 -18 -47 1 -39 -2
-48 -18 -51 -10 -2 -22 1 -26 7 -5 9 -14 9 -34 2 -31 -13 -65 3 -67 31 -1 10
-2 24 -3 31 -1 6 -8 17 -16 24 -8 6 -11 15 -7 19 4 5 12 3 16 -4 6 -10 11 -10
21 3 13 15 120 22 154 9z m-971 -44 c7 0 30 -14 51 -30 22 -17 47 -30 55 -31
11 0 9 -4 -7 -11 -17 -9 -26 -8 -40 4 -10 9 -25 13 -35 9 -16 -6 -16 -8 4 -30
16 -17 28 -21 47 -16 21 5 24 4 14 -8 -10 -11 -9 -17 4 -28 13 -11 17 -10 25
2 4 8 6 22 3 32 -9 28 8 20 44 -20 18 -21 31 -33 28 -26 -4 6 -2 14 4 18 6 3
14 -4 19 -17 9 -22 9 -22 17 -3 4 11 12 23 18 27 6 4 5 12 -3 22 -8 10 -9 16
-3 16 6 0 12 7 14 15 2 9 11 2 26 -20 l22 -35 -25 0 c-16 0 -25 -6 -25 -16 0
-8 4 -12 10 -9 12 7 80 -23 80 -36 0 -5 -4 -9 -10 -9 -5 0 -10 -9 -10 -20 0
-11 5 -20 10 -20 6 0 10 5 10 11 0 8 5 8 15 -1 8 -7 23 -10 33 -8 14 4 18 0
17 -16 -1 -12 -9 -22 -18 -24 -28 -6 -19 -22 12 -22 17 0 33 -4 36 -10 3 -5
15 -10 26 -10 13 0 19 -7 19 -23 0 -12 9 -28 20 -35 21 -13 28 -42 10 -42 -19
0 -10 -18 12 -23 12 -4 19 -9 15 -13 -3 -4 5 -15 18 -26 14 -11 25 -26 25 -34
0 -7 18 -25 41 -39 22 -15 53 -38 69 -53 52 -49 70 -62 88 -62 21 -1 54 -25
46 -33 -4 -4 -15 -2 -26 4 -11 6 -26 8 -34 5 -26 -10 -163 56 -219 105 -43 37
-179 119 -198 119 -8 0 -24 10 -34 23 -10 12 -29 29 -43 38 -14 9 -66 59 -115
110 -50 51 -113 116 -141 144 -96 94 -118 124 -104 140 10 12 15 12 38 -3 14
-9 23 -12 19 -5 -4 6 -4 19 0 29 4 11 8 13 11 6 2 -7 9 -12 15 -12z m5327 -15
c-7 -8 -17 -15 -22 -15 -6 0 -5 7 2 15 7 8 17 15 22 15 6 0 5 -7 -2 -15z m-40
-25 c0 -5 -4 -10 -9 -10 -6 0 -13 5 -16 10 -3 6 1 10 9 10 9 0 16 -4 16 -10z
m-4915 -30 c3 -6 -1 -7 -9 -4 -18 7 -21 14 -7 14 6 0 13 -4 16 -10z m691 -83
c-4 -33 -15 -48 -33 -45 -10 2 -20 -9 -28 -31 -10 -30 -12 -32 -19 -15 -4 10
-7 21 -6 23 1 2 -4 7 -11 12 -16 10 28 59 53 59 9 0 20 5 23 10 11 18 23 10
21 -13z m-245 -103 c12 -14 11 -16 -5 -13 -11 2 -21 10 -24 17 -5 17 13 15 29
-4z m-81 -86 c0 -19 -2 -20 -10 -8 -13 19 -13 30 0 30 6 0 10 -10 10 -22z m62
-53 c-2 -9 1 -22 6 -28 12 -15 -3 -57 -20 -57 -8 0 -14 14 -15 33 -1 17 -5 48
-9 67 l-7 34 24 -16 c13 -9 23 -23 21 -33z m-50 -37 c-7 -7 -12 -8 -12 -2 0
14 12 26 19 19 2 -3 -1 -11 -7 -17z m4145 -14 c-3 -3 -12 -4 -19 -1 -8 3 -5 6
6 6 11 1 17 -2 13 -5z m-774 -261 c-7 -2 -19 -2 -25 0 -7 3 -2 5 12 5 14 0 19
-2 13 -5z m87 -73 c0 -5 -5 -10 -11 -10 -5 0 -7 5 -4 10 3 6 8 10 11 10 2 0 4
-4 4 -10z m-60 -70 c0 -5 -7 -10 -16 -10 -8 0 -12 5 -9 10 3 6 10 10 16 10 5
0 9 -4 9 -10z m-1810 -27 c0 -5 -5 -15 -10 -23 -8 -12 -10 -11 -10 8 0 12 5
22 10 22 6 0 10 -3 10 -7z m-4253 -1240 c-18 -34 -81 -133 -84 -133 -5 0 -5 1
42 78 21 34 40 62 42 62 2 0 2 -3 0 -7z m-286 -20 c13 -15 12 -15 -8 -2 -19
11 -25 11 -35 0 -10 -11 -10 -14 -1 -18 27 -10 56 -40 49 -51 -8 -14 -52 -16
-60 -4 -3 5 8 6 25 4 38 -6 38 13 -1 33 -33 17 -36 25 -18 43 17 17 33 15 49
-5z m85 -8 c23 -35 6 -75 -31 -75 -23 0 -25 3 -25 50 0 43 3 50 20 50 11 0 27
-11 36 -25z m95 1 c17 -38 4 -76 -26 -76 -37 0 -54 40 -31 75 21 32 43 32 57
1z m183 -56 c6 -21 5 -22 -4 -7 -14 22 -46 22 -59 0 -19 -33 -11 -4 11 43 l23
46 11 -29 c6 -15 15 -39 18 -53z m23 2 c-2 -15 -4 -2 -4 28 0 30 2 43 4 28 2
-16 2 -40 0 -56z m87 -2 c6 -21 5 -22 -4 -7 -6 9 -17 17 -25 17 -8 0 -19 -8
-24 -17 -15 -26 -13 -13 6 43 l17 49 12 -30 c6 -17 15 -41 18 -55z m154 28
c-1 -50 -2 -51 -5 -11 -3 34 -7 41 -21 36 -13 -4 -12 -2 3 10 11 9 21 17 23
17 1 0 1 -24 0 -52z m87 2 c-14 -27 -28 -50 -30 -50 -3 0 4 18 15 40 25 49 25
48 -7 53 -23 3 -20 4 10 6 l37 1 -25 -50z m83 -2 c-1 -51 -2 -51 -5 -10 -3 29
-8 40 -16 35 -7 -4 -6 0 2 10 7 9 15 17 17 17 2 0 3 -24 2 -52z m190 28 c2
-10 -6 -28 -18 -41 l-22 -23 28 -5 c24 -3 21 -4 -10 -6 l-40 -1 27 28 c29 31
36 62 12 62 -7 0 -19 -8 -24 -17 -6 -10 -11 -13 -11 -7 -1 33 52 43 58 10z
m81 10 c7 -8 11 -30 9 -48 -2 -25 -8 -34 -25 -36 -34 -5 -51 39 -29 73 19 29
29 31 45 11z m69 -38 c-1 -44 -2 -46 -5 -15 -2 20 -9 37 -14 37 -8 0 10 28 19
30 1 0 1 -24 0 -52z m112 29 c0 -8 -3 -8 -11 0 -12 12 -39 7 -39 -8 0 -5 8 -9
19 -9 10 0 24 -7 31 -15 17 -20 -5 -47 -34 -43 -28 4 -36 66 -11 84 19 14 45
8 45 -9z m79 9 c7 -8 11 -30 9 -48 -2 -27 -8 -34 -29 -36 -21 -2 -28 2 -33 22
-7 27 1 57 18 68 16 11 22 10 35 -6z m74 7 c-29 -6 -29 -9 4 -37 24 -20 25
-26 14 -40 -14 -17 -61 -22 -61 -7 0 4 11 6 24 4 13 -3 27 0 31 6 11 18 -15
42 -38 35 -16 -5 -19 -3 -14 11 4 9 7 21 7 26 0 5 12 8 28 8 23 -2 24 -2 5 -6z
m96 -7 c7 -8 11 -30 9 -48 -2 -25 -8 -34 -25 -36 -34 -5 -51 39 -29 73 19 29
29 31 45 11z m80 0 c19 -22 10 -80 -13 -84 -10 -2 -22 0 -28 6 -6 6 0 8 16 5
15 -3 26 -1 26 5 0 6 -10 12 -22 14 -26 3 -35 32 -18 53 16 19 24 19 39 1z
m189 -38 c-1 -50 -2 -51 -5 -11 -3 34 -7 41 -21 36 -13 -4 -12 -2 3 10 11 9
21 17 23 17 1 0 1 -24 0 -52z m91 38 c19 -22 10 -80 -13 -84 -10 -2 -22 0 -28
6 -6 6 0 8 16 5 15 -3 26 -1 26 5 0 6 -10 12 -22 14 -26 3 -35 32 -18 53 16
19 24 19 39 1z m93 -3 c-6 -11 -6 -23 1 -34 15 -24 1 -49 -27 -49 -14 0 -27 4
-30 8 -3 5 8 6 25 4 24 -4 29 -1 29 17 0 13 -6 21 -17 21 -13 0 -14 3 -5 12
18 18 15 26 -10 31 -17 3 -13 5 10 6 28 1 32 -1 24 -16z m77 3 c19 -22 10 -80
-13 -84 -10 -2 -22 0 -28 6 -6 6 0 8 16 5 15 -3 26 -1 26 5 0 6 -10 12 -22 14
-26 3 -35 32 -18 53 16 19 24 19 39 1z m85 8 c24 -9 19 -40 -9 -63 l-26 -20
28 -4 c21 -3 18 -4 -12 -5 l-40 -1 33 27 c18 15 32 32 32 39 0 22 -23 26 -37
8 -11 -16 -13 -16 -13 -3 0 9 6 19 13 21 6 3 13 6 14 6 1 1 8 -2 17 -5z m98
-11 c-6 -11 -6 -23 1 -34 16 -26 1 -49 -33 -49 -16 0 -30 4 -30 8 0 5 14 7 30
4 25 -4 30 -1 30 17 0 13 -6 21 -17 21 -13 0 -14 3 -5 12 18 18 15 26 -10 31
-17 3 -13 5 10 6 28 1 32 -1 24 -16z m171 -71 c18 2 23 12 28 48 l7 45 -2 -44
c-1 -47 -20 -69 -50 -58 -12 5 -16 18 -14 54 l2 48 3 -48 c4 -43 7 -48 26 -45z
m105 81 c-14 -3 -18 -16 -20 -51 l-2 -47 -3 47 c-3 33 -9 48 -21 51 -9 3 1 5
23 5 22 0 32 -2 23 -5z m80 -5 c7 -7 12 -16 12 -22 0 -5 -6 -1 -14 9 -21 28
-46 12 -46 -30 0 -30 3 -35 24 -35 13 0 27 5 29 10 3 6 4 5 3 -2 -2 -7 -16
-13 -32 -13 -26 0 -29 4 -32 33 -5 50 27 79 56 50z m-880 -85 c-16 -2 -40 -2
-55 0 -16 2 -3 4 27 4 30 0 43 -2 28 -4z m625 0 c-13 -2 -35 -2 -50 0 -16 2
-5 4 22 4 28 0 40 -2 28 -4z"/>
<path d="M4710 8980 c0 -6 7 -10 15 -10 8 0 15 2 15 4 0 2 -7 6 -15 10 -8 3
-15 1 -15 -4z"/>
<path d="M4670 8880 c-12 -23 -7 -25 21 -9 11 5 17 14 14 20 -10 15 -23 11
-35 -11z"/>
<path d="M7584 8221 c21 -23 26 -26 26 -11 0 5 -10 15 -22 21 -23 12 -23 12
-4 -10z"/>
<path d="M1675 7090 c-4 -6 -10 -8 -14 -5 -12 7 -37 -26 -45 -56 -5 -21 -2
-28 15 -32 15 -4 23 1 31 18 6 14 14 22 18 20 5 -3 8 11 7 30 -1 38 -2 40 -12
25z"/>
<path d="M1600 6925 c-11 -13 -15 -13 -21 -3 -6 9 -13 0 -24 -27 -8 -22 -20
-48 -25 -57 -14 -24 -12 -45 3 -52 6 -3 3 -4 -8 -3 -14 1 -21 -5 -23 -20 -3
-18 2 -23 17 -23 12 0 21 -6 21 -14 0 -20 40 -32 50 -15 5 6 6 19 3 27 -5 12
-2 12 14 3 18 -9 21 -7 25 14 3 13 1 28 -5 34 -6 6 -6 30 1 67 13 78 2 105
-28 69z m-25 -155 c3 -5 1 -10 -4 -10 -6 0 -11 5 -11 10 0 6 2 10 4 10 3 0 8
-4 11 -10z"/>
<path d="M1780 6718 c0 -8 14 -14 38 -15 37 -2 31 7 -15 21 -16 5 -23 3 -23
-6z"/>
<path d="M1498 6621 c-26 -26 -22 -40 10 -40 15 0 40 -2 56 -3 23 -2 30 1 32
20 2 12 -1 22 -6 22 -6 0 -10 -5 -10 -12 0 -6 -3 -8 -7 -4 -5 4 -8 13 -8 19 0
19 -49 18 -67 -2z"/>
<path d="M1440 6504 c0 -8 6 -11 15 -8 8 4 15 9 15 13 0 4 -7 8 -15 8 -8 0
-15 -6 -15 -13z"/>
<path d="M1397 6419 c-3 -13 -1 -19 6 -16 15 5 22 37 9 37 -5 0 -12 -9 -15
-21z"/>
<path d="M1330 6169 c0 -18 3 -29 7 -25 10 10 11 46 1 52 -4 3 -8 -9 -8 -27z"/>
<path d="M1291 6171 c-8 -14 -7 -20 4 -25 8 -3 17 -1 20 4 4 6 1 10 -6 10 -8
0 -8 4 1 15 8 10 9 15 2 15 -6 0 -16 -9 -21 -19z"/>
<path d="M1245 6038 c-3 -18 -9 -41 -12 -52 -3 -11 -1 -16 5 -12 11 7 27 84
19 92 -3 3 -8 -10 -12 -28z"/>
<path d="M1012 5623 c2 -9 9 -18 16 -21 18 -6 15 25 -4 32 -11 4 -14 1 -12
-11z"/>
<path d="M1220 5214 c0 -8 5 -12 10 -9 6 3 10 10 10 16 0 5 -4 9 -10 9 -5 0
-10 -7 -10 -16z"/>
<path d="M1240 4711 c0 -6 5 -13 10 -16 6 -3 10 1 10 9 0 9 -4 16 -10 16 -5 0
-10 -4 -10 -9z"/>
<path d="M8740 6520 c0 -5 5 -10 11 -10 5 0 7 5 4 10 -3 6 -8 10 -11 10 -2 0
-4 -4 -4 -10z"/>
<path d="M8961 5998 c-1 -9 5 -23 12 -30 8 -7 12 -19 9 -26 -2 -6 1 -12 7 -12
6 0 11 14 11 30 0 19 -5 30 -14 30 -8 0 -17 6 -19 13 -4 7 -6 6 -6 -5z"/>
<path d="M8985 5880 c-3 -5 -2 -10 4 -10 5 0 13 5 16 10 3 6 2 10 -4 10 -5 0
-13 -4 -16 -10z"/>
<path d="M9075 5031 c-3 -5 -1 -12 5 -16 5 -3 10 1 10 9 0 18 -6 21 -15 7z"/>
<path d="M8807 3791 c-6 -24 7 -46 22 -37 16 10 14 56 -3 56 -7 0 -16 -9 -19
-19z"/>
<path d="M8796 3725 c-7 -19 0 -35 15 -35 9 0 7 35 -3 45 -3 3 -8 -1 -12 -10z"/>
<path d="M8750 3710 c0 -5 5 -10 11 -10 5 0 7 5 4 10 -3 6 -8 10 -11 10 -2 0
-4 -4 -4 -10z"/>
<path d="M8645 3680 c3 -5 13 -10 21 -10 8 0 14 5 14 10 0 6 -9 10 -21 10 -11
0 -17 -4 -14 -10z"/>
<path d="M8755 3669 c-4 -6 -5 -13 -2 -16 7 -7 27 6 27 18 0 12 -17 12 -25 -2z"/>
<path d="M8641 3354 c0 -11 3 -14 6 -6 3 7 2 16 -1 19 -3 4 -6 -2 -5 -13z"/>
<path d="M7960 2386 c0 -24 15 -26 28 -5 11 16 9 19 -8 19 -11 0 -20 -6 -20
-14z"/>
<path d="M4803 6658 c4 -10 2 -18 -4 -18 -6 0 -7 -5 -3 -11 5 -8 10 -6 16 6 7
12 6 21 -2 28 -10 9 -12 8 -7 -5z"/>
<path d="M4761 6588 c-32 -50 -59 -115 -65 -158 -7 -45 -6 -45 8 -15 69 146
100 241 57 173z"/>
<path d="M4682 6340 c0 -14 2 -19 5 -12 2 6 2 18 0 25 -3 6 -5 1 -5 -13z"/>
<path d="M4325 6340 c-3 -5 1 -10 10 -10 9 0 13 5 10 10 -3 6 -8 10 -10 10 -2
0 -7 -4 -10 -10z"/>
<path d="M4540 6324 c0 -6 7 -19 15 -30 8 -10 14 -14 14 -9 0 6 -6 19 -14 29
-8 11 -15 15 -15 10z"/>
<path d="M4365 6280 c4 -6 11 -8 16 -5 14 9 11 15 -7 15 -8 0 -12 -5 -9 -10z"/>
<path d="M4530 6268 c0 -7 4 -19 9 -27 11 -17 25 3 17 24 -7 18 -26 20 -26 3z"/>
<path d="M4638 6219 c6 -9 10 -18 7 -21 -3 -3 1 -11 10 -18 12 -10 15 -10 15
2 0 8 -10 23 -22 34 -14 12 -18 13 -10 3z"/>
<path d="M4700 6150 c8 -5 20 -10 25 -10 6 0 3 5 -5 10 -8 5 -19 10 -25 10 -5
0 -3 -5 5 -10z"/>
<path d="M4694 6102 c-3 -15 -12 -40 -21 -55 -8 -16 -13 -30 -10 -33 11 -11
34 9 43 39 5 18 14 31 19 30 6 -1 12 8 13 21 2 34 -36 32 -44 -2z"/>
<path d="M4505 6090 c-3 -6 1 -7 9 -4 18 7 21 14 7 14 -6 0 -13 -4 -16 -10z"/>
<path d="M3740 6280 c0 -5 5 -10 11 -10 5 0 7 5 4 10 -3 6 -8 10 -11 10 -2 0
-4 -4 -4 -10z"/>
<path d="M3740 6236 c0 -2 7 -6 15 -10 8 -3 15 -1 15 4 0 6 -7 10 -15 10 -8 0
-15 -2 -15 -4z"/>
<path d="M3903 5622 c-25 -16 -23 -63 5 -98 15 -19 30 -34 34 -34 4 0 6 17 5
38 -2 35 -23 66 -39 56 -11 -7 -10 4 2 27 12 21 11 22 -7 11z"/>
<path d="M4766 5916 c7 -18 84 -23 84 -6 0 6 -13 10 -29 10 -16 0 -37 3 -45 6
-12 5 -15 2 -10 -10z"/>
<path d="M6695 5800 c44 -19 62 -23 103 -24 54 -2 77 19 31 28 -48 9 -158 6
-134 -4z"/>
<path d="M6635 5541 c-3 -5 -1 -12 5 -16 5 -3 10 1 10 9 0 18 -6 21 -15 7z"/>
<path d="M6667 5534 c-16 -16 -5 -30 31 -40 47 -12 82 -7 82 12 0 17 -41 28
-74 20 -14 -3 -26 -1 -28 5 -2 5 -7 7 -11 3z"/>
<path d="M6770 5536 c0 -2 7 -6 15 -10 8 -3 15 -1 15 4 0 6 -7 10 -15 10 -8 0
-15 -2 -15 -4z"/>
<path d="M5059 4863 c-13 -16 -12 -17 4 -4 16 13 21 21 13 21 -2 0 -10 -8 -17
-17z"/>
<path d="M8560 4831 c0 -15 28 -33 40 -26 8 5 8 11 -1 21 -13 15 -39 19 -39 5z"/>
<path d="M2673 2043 c9 -9 19 -14 23 -11 10 10 -6 28 -24 28 -15 0 -15 -1 1
-17z"/>
<path d="M210 140 c0 -33 3 -40 19 -40 24 0 36 32 21 60 -19 35 -40 25 -40
-20z"/>
<path d="M300 160 c-15 -28 -3 -60 21 -60 24 0 33 21 25 55 -8 30 -31 33 -46
5z"/>
<path d="M497 155 c-8 -20 -4 -29 11 -24 5 2 6 13 2 23 -6 19 -7 19 -13 1z"/>
<path d="M607 150 c-3 -12 0 -20 8 -20 8 0 11 8 8 20 -3 11 -7 20 -8 20 -1 0
-5 -9 -8 -20z"/>
<path d="M1200 160 c-15 -28 -4 -60 21 -60 17 0 20 6 17 37 -3 42 -22 54 -38
23z"/>
<path d="M1370 120 c0 -16 5 -21 23 -18 12 2 22 10 22 18 0 8 -10 16 -22 18
-18 3 -23 -2 -23 -18z"/>
<path d="M1460 160 c-15 -28 -4 -60 21 -60 17 0 20 6 17 37 -3 42 -22 54 -38
23z"/>
<path d="M1630 160 c-15 -28 -4 -60 21 -60 17 0 20 6 17 37 -3 42 -22 54 -38
23z"/>
<path d="M1717 174 c-16 -16 -7 -44 14 -44 15 0 20 5 17 22 -3 22 -19 33 -31
22z"/>
<path d="M1997 174 c-16 -16 -7 -44 14 -44 15 0 20 5 17 22 -3 22 -19 33 -31
22z"/>
<path d="M2167 174 c-16 -16 -7 -44 14 -44 15 0 20 5 17 22 -3 22 -19 33 -31
22z"/>
</g>
</svg>
